Language: Japanese

Subtitles: English, Spanish and Portuguese
  http://www.imdb.com/title/tt1641397

Toward the end of World War II, middle-aged soldier Keita is entrusted with a postcard from a comrade who is sure he will die in battle. After the war ends, Keita visits his comrade's wife Yuko and bears witness to the tragic life she has led.
Kaneto Sindo last film,he died on May 29,this year at the age of 100.RIP.

Japanese entry for the Best Foreign Language Film at the 84th Academy Awards



      Format : AVI
      Format/Info : Audio Video Interleave
      File size : 1.37 GiB
      Duration : 1h 54mn
      Overall bit rate : 1 703 Kbps
      Writing application : VirtualDubMod 1.5.4.1 (build 2178/release)
      Writing library : VirtualDubMod build 2178/release
   Video #0
      ID : 0
      Format : MPEG-4 Visual
      Format profile : AdvancedSimple@L5
      Format settings, BVOP : Yes
      Format settings, QPel : No
      Format settings, GMC : No warppoints
      Format settings, Matrix : Custom
      Codec ID : XVID
      Codec ID/Hint : XviD
      Duration : 1h 54mn
      Bit rate : 1 313 Kbps
      Width : 720 pixels
      Height : 400 pixels
      Display aspect ratio : 16:9
      Frame rate : 23.976 fps
      Resolution : 24 bits
      Colorimetry : 4:2:0
      Scan type : Progressive
      Bits/(Pixel*Frame) : 0.190
      Stream size : 1.05 GiB (77%)
      Writing library : XviD 64
   Audio #1
      ID : 1
      Format : AC-3
      Format/Info : Audio Coding 3
      Codec ID : 2000
      Duration : 1h 54mn
      Bit rate mode : Constant
      Bit rate : 384 Kbps
      Channel(s) : 2 channels
      Channel positions : L R
      Sampling rate : 48.0 KHz
      Stream size : 316 MiB (23%)
      Alignment : Split accross interleaves
      Interleave, duration : 96 ms (2.30 video frames)
      Interleave, preload duration : 96 ms
      Language : Japanese